<svg width="4800" height="3411" viewBox="0 0 4800 3411" fill="none" xmlns="http://www.w3.org/2000/svg">
<path d="M2226.64 377H2764.83L3671.2 1459.14L3132.11 1460.03L2226.64 377Z" fill="#74C2FA"/>
<path d="M1737.16 377H2043.99L2949.46 1460.03H2642.63L1737.16 377Z" fill="#D3E78E"/>
<path d="M1728.53 2564.74L2765.72 2564.74L3671.2 1459.14H2634L1728.53 2564.74Z" fill="#0080BC"/>
<path d="M976.792 2946.28L1094.82 2793.35H1214.33L1066.67 2968.9L1228.16 3164.11H1102.72L976.792 3003.32V3164.11H880V2793.35H976.792V2946.28Z" fill="black"/>
<path d="M1332.9 2978.73C1332.9 2993.48 1335.69 3007.09 1341.29 3019.55C1346.89 3032 1354.46 3042.82 1364.01 3052C1373.56 3061.18 1384.58 3068.39 1397.09 3073.64C1409.93 3078.55 1423.43 3081.01 1437.59 3081.01C1451.75 3081.01 1465.08 3078.55 1477.59 3073.64C1490.43 3068.39 1501.62 3061.18 1511.17 3052C1521.05 3042.82 1528.79 3032 1534.38 3019.55C1539.98 3007.09 1542.78 2993.48 1542.78 2978.73C1542.78 2963.98 1539.98 2950.38 1534.38 2937.92C1528.79 2925.46 1521.05 2914.65 1511.17 2905.47C1501.62 2896.29 1490.43 2889.24 1477.59 2884.32C1465.08 2879.08 1451.75 2876.45 1437.59 2876.45C1423.43 2876.45 1409.93 2879.08 1397.09 2884.32C1384.58 2889.24 1373.56 2896.29 1364.01 2905.47C1354.46 2914.65 1346.89 2925.46 1341.29 2937.92C1335.69 2950.38 1332.9 2963.98 1332.9 2978.73ZM1231.66 2978.73C1231.66 2951.2 1236.76 2925.63 1246.97 2902.02C1257.17 2878.09 1271.33 2857.28 1289.44 2839.58C1307.55 2821.87 1329.11 2808.11 1354.13 2798.27C1379.48 2788.11 1407.3 2783.03 1437.59 2783.03C1467.55 2783.03 1495.2 2788.11 1520.55 2798.27C1545.9 2808.11 1567.63 2821.87 1585.74 2839.58C1604.18 2857.28 1618.5 2878.09 1628.7 2902.02C1638.91 2925.63 1644.01 2951.2 1644.01 2978.73C1644.01 3006.27 1638.91 3032 1628.7 3055.93C1618.5 3079.54 1604.18 3100.19 1585.74 3117.89C1567.63 3135.59 1545.9 3149.52 1520.55 3159.69C1495.2 3169.52 1467.55 3174.44 1437.59 3174.44C1407.3 3174.44 1379.48 3169.52 1354.13 3159.69C1329.11 3149.52 1307.55 3135.59 1289.44 3117.89C1271.33 3100.19 1257.17 3079.54 1246.97 3055.93C1236.76 3032 1231.66 3006.27 1231.66 2978.73Z" fill="black"/>
<path d="M1705.15 3164.11V2793.35H1801.95L1980.72 3020.04V2793.35H2077.01V3164.11H1980.72L1801.95 2937.43V3164.11H1705.15Z" fill="black"/>
<path d="M2243.89 2978.73C2243.89 2993.48 2246.69 3007.09 2252.29 3019.55C2257.88 3032 2265.46 3042.82 2275 3052C2284.55 3061.18 2295.58 3068.39 2308.09 3073.64C2320.93 3078.55 2334.43 3081.01 2348.59 3081.01C2362.74 3081.01 2376.08 3078.55 2388.59 3073.64C2401.43 3068.39 2412.62 3061.18 2422.17 3052C2432.04 3042.82 2439.78 3032 2445.38 3019.55C2450.98 3007.09 2453.77 2993.48 2453.77 2978.73C2453.77 2963.98 2450.98 2950.38 2445.38 2937.92C2439.78 2925.46 2432.04 2914.65 2422.17 2905.47C2412.62 2896.29 2401.43 2889.24 2388.59 2884.32C2376.08 2879.08 2362.74 2876.45 2348.59 2876.45C2334.43 2876.45 2320.93 2879.08 2308.09 2884.32C2295.58 2889.24 2284.55 2896.29 2275 2905.47C2265.46 2914.65 2257.88 2925.46 2252.29 2937.92C2246.69 2950.38 2243.89 2963.98 2243.89 2978.73ZM2142.66 2978.73C2142.66 2951.2 2147.76 2925.63 2157.96 2902.02C2168.17 2878.09 2182.33 2857.28 2200.43 2839.58C2218.54 2821.87 2240.11 2808.11 2265.13 2798.27C2290.48 2788.11 2318.3 2783.03 2348.59 2783.03C2378.55 2783.03 2406.2 2788.11 2431.55 2798.27C2456.9 2808.11 2478.63 2821.87 2496.74 2839.58C2515.17 2857.28 2529.5 2878.09 2539.7 2902.02C2549.91 2925.63 2555.01 2951.2 2555.01 2978.73C2555.01 3006.27 2549.91 3032 2539.7 3055.93C2529.5 3079.54 2515.17 3100.19 2496.74 3117.89C2478.63 3135.59 2456.9 3149.52 2431.55 3159.69C2406.2 3169.52 2378.55 3174.44 2348.59 3174.44C2318.3 3174.44 2290.48 3169.52 2265.13 3159.69C2240.11 3149.52 2218.54 3135.59 2200.43 3117.89C2182.33 3100.19 2168.17 3079.54 2157.96 3055.93C2147.76 3032 2142.66 3006.27 2142.66 2978.73Z" fill="black"/>
<path d="M3920.77 2793.39V3165.67H3824V2793.39H3920.77Z" fill="black"/>
<path d="M3492.77 2948.14L3610.77 2794.59H3730.26L3582.63 2970.85L3744.08 3166.86H3618.67L3492.77 3005.41V3166.86H3396V2794.59H3492.77V2948.14Z" fill="black"/>
<path d="M3182.98 3027.42L3139.53 2903.5L3096.08 3027.42H3182.98ZM3208.65 3100.99H3070.41L3048.19 3165.67H2945L3086.7 2793.39H3192.36L3334.06 3165.67H3230.87L3208.65 3100.99Z" fill="black"/>
<path d="M2842.54 2888.69C2832.01 2880.13 2821.48 2873.87 2810.94 2869.92C2800.41 2865.65 2790.21 2863.51 2780.33 2863.51C2767.83 2863.51 2757.62 2866.47 2749.72 2872.39C2741.82 2878.32 2737.87 2886.05 2737.87 2895.6C2737.87 2902.18 2739.85 2907.61 2743.8 2911.89C2747.75 2916.17 2752.85 2919.96 2759.1 2923.25C2765.69 2926.21 2772.93 2928.84 2780.83 2931.15C2789.06 2933.45 2797.12 2935.92 2805.02 2938.55C2836.62 2949.09 2859.66 2963.24 2874.14 2981.01C2888.95 2998.46 2896.36 3021.34 2896.36 3049.64C2896.36 3068.73 2893.07 3086.01 2886.49 3101.49C2880.23 3116.96 2870.85 3130.29 2858.34 3141.48C2846.16 3152.34 2831.02 3160.73 2812.92 3166.66C2795.15 3172.91 2774.9 3176.04 2752.19 3176.04C2705.12 3176.04 2661.51 3162.05 2621.35 3134.07L2662.82 3056.06C2677.31 3068.9 2691.63 3078.44 2705.78 3084.7C2719.93 3090.95 2733.92 3094.08 2747.75 3094.08C2763.55 3094.08 2775.23 3090.46 2782.8 3083.22C2790.7 3075.98 2794.65 3067.75 2794.65 3058.53C2794.65 3052.93 2793.66 3048.16 2791.69 3044.21C2789.71 3039.93 2786.42 3036.15 2781.81 3032.86C2777.21 3029.24 2771.12 3025.94 2763.55 3022.98C2756.3 3020.02 2747.42 3016.73 2736.88 3013.11C2724.38 3009.16 2712.03 3004.88 2699.85 3000.27C2688.01 2995.33 2677.31 2988.91 2667.76 2981.01C2658.55 2973.11 2650.98 2963.24 2645.05 2951.39C2639.45 2939.21 2636.66 2923.91 2636.66 2905.47C2636.66 2887.04 2639.62 2870.42 2645.54 2855.61C2651.8 2840.46 2660.36 2827.63 2671.22 2817.09C2682.41 2806.23 2695.9 2797.84 2711.7 2791.91C2727.83 2785.99 2745.77 2783.03 2765.52 2783.03C2783.95 2783.03 2803.21 2785.66 2823.29 2790.93C2843.37 2795.86 2862.62 2803.27 2881.05 2813.15L2842.54 2888.69Z" fill="black"/>
</svg>
